<?xml version="1.0" encoding="UTF-8"?>
<svg id="Layer_1" xmlns="http://www.w3.org/2000/svg" version="1.1" viewBox="0 0 600 900">
  <!-- Generator: Adobe Illustrator 29.2.1, SVG Export Plug-In . SVG Version: 2.1.0 Build 116)  -->
  <defs>
    <style>
      .st0 {
        fill: #fff;
      }

      .st1 {
        fill: none;
      }

      .st2 {
        fill: #b4171e;
      }
    </style>
  </defs>
  <g>
    <g>
      <path class="st0" d="M22.1,0h555.8c12.2,0,22.1,9.9,22.1,22.1v855.8c0,12.2-9.9,22.1-22.1,22.1H22.1c-12.2,0-22.1-9.9-22.1-22.1V22.1C0,9.9,9.9,0,22.1,0Z"/>
      <g>
        <polygon class="st1" points="157.1 477.2 157.1 477.2 157.1 477.2 157.1 477.2"/>
        <path class="st2" d="M114,405.3l-1.7-5.1c-1-3.3-1.5-6.8-1.5-10.3s.5-7.8,1.7-14l16.9-71.4h77.6l19.4,85c.7,2,1.1,4.9,1,8.9v6.7h-24.5v32h108.6v-32h-9.8l-12.9-1.7-1.5-1.2c-1.2-1-4.3-4.1-7-11.8L199.1,52.2l-46.2,15.4-82.3,323.3c-1,6.3-3,9.3-4.1,10.5l-1.9,2-23,1.2v32.3h96.1v-32h-18.4l-5.3.3ZM170.1,147l30.3,125.5h-62l31.7-125.5Z"/>
      </g>
    </g>
    <path class="st2" d="M600,282.7l-17.5-17.5c-54.2-54.2-142.1-54.2-196.4,0-54.2,54.2-54.2,142.1,0,196.4l213.9,213.9h0v-392.7h0Z"/>
  </g>
  <g>
    <path class="st2" d="M65.5,747c-28.9-28.9-28.9-76,0-104.9,14-14,32.6-21.7,52.4-21.7,19.8,0,38.4,7.7,52.4,21.7l3.9,3.9,3.9-3.9c14-14,32.6-21.7,52.5-21.7s38.4,7.7,52.4,21.7c28.9,28.9,28.9,76,0,104.9l-108.8,108.7-108.8-108.7Z"/>
    <path class="st0" d="M230.6,627c17.3,0,34.6,6.6,47.8,19.8,26.4,26.4,26.4,69.2,0,95.6l-104.1,104.1-104.1-104.1c-26.4-26.4-26.4-69.2,0-95.6,13.2-13.2,30.5-19.8,47.8-19.8s34.6,6.6,47.8,19.8l8.5,8.5,8.5-8.5c13.2-13.2,30.5-19.8,47.8-19.8M230.6,613.9c-21.2,0-41.2,8.1-56.3,22.9-15.1-14.8-35.1-22.9-56.3-22.9s-41.8,8.4-57,23.6c-31.4,31.4-31.4,82.6,0,114.1l104.1,104.1,9.2,9.2,9.2-9.2,104.1-104.1c31.4-31.4,31.4-82.6,0-114.1-15.2-15.2-35.5-23.6-57-23.6h0Z"/>
  </g>
</svg>